<svg width="72" height="72" viewBox="0 0 72 72" fill="none" xmlns="http://www.w3.org/2000/svg">
<g clip-path="url(#clip0_74_3413)">
<path d="M71.9988 36.0008C71.9988 16.1185 55.8814 0.000816345 35.9994 0.000816345C16.1175 0.000816345 0 16.1185 0 36.0008C0 53.9695 13.1645 68.8628 30.3745 71.5635V46.4071H21.234V36.0008H30.3745V28.0696C30.3745 19.0471 35.749 14.0633 43.972 14.0633C47.9106 14.0633 52.0304 14.7664 52.0304 14.7664V23.6258H47.491C43.0189 23.6258 41.6243 26.4008 41.6243 29.2478V36.0008H51.6085L50.0125 46.4071H41.6243V71.5635C58.8344 68.8628 71.9988 53.9695 71.9988 36.0008Z" fill="#1877F2"/>
<path d="M50.0126 46.4075L51.6087 36.0012H41.6245V29.2482C41.6245 26.4012 43.0191 23.6262 47.4911 23.6262H52.0306V14.7668C52.0306 14.7668 47.9108 14.0637 43.9722 14.0637C35.7491 14.0637 30.3747 19.0475 30.3747 28.07V36.0012H21.2342V46.4075H30.3747V71.5639C32.2075 71.8514 34.086 72.0012 35.9996 72.0012C37.9132 72.0012 39.7917 71.8514 41.6245 71.5639V46.4075H50.0126Z" fill="white"/>
</g>
<defs>
<clipPath id="clip0_74_3413">
<rect width="71.9988" height="72" fill="white"/>
</clipPath>
</defs>
</svg>
