<svg width="72" height="72" viewBox="0 0 72 72" fill="none" xmlns="http://www.w3.org/2000/svg">
<g clip-path="url(#clip0_74_3418)">
<path d="M36.0018 72C55.884 72 72.0018 55.8823 72.0018 36C72.0018 16.1177 55.884 0 36.0018 0C16.1195 0 0.00177002 16.1177 0.00177002 36C0.00177002 55.8823 16.1195 72 36.0018 72Z" fill="url(#paint0_linear_74_3418)"/>
<path fill-rule="evenodd" clip-rule="evenodd" d="M58.8668 51.7113C58.3509 52.0219 57.7499 52.2 57.1083 52.2H14.8917C14.2501 52.2 13.6491 52.0219 13.1332 51.7113L27.2195 37.2728L30.6962 40.8364C32.0397 42.2136 33.8256 42.9 36 42.9C38.1743 42.9 39.9602 42.2136 41.3038 40.8364L44.7805 37.2728L58.8668 51.7113ZM60.1085 50.4385L46.0222 36L60.1085 21.5616C60.4116 22.0904 60.5853 22.7064 60.5853 23.364V48.636C60.5853 49.2937 60.4116 49.9097 60.1085 50.4385ZM11.8914 50.4385C11.5884 49.9097 11.4146 49.2937 11.4146 48.636V23.364C11.4146 22.7064 11.5884 22.0904 11.8914 21.5616L25.9777 36L11.8914 50.4385ZM58.8668 20.2888L40.062 39.5637C39.0641 40.5865 37.7281 41.1 36 41.1C34.2719 41.1 32.9358 40.5865 31.9379 39.5637L13.1332 20.2888C13.6491 19.9782 14.2501 19.8 14.8917 19.8H57.1083C57.7499 19.8 58.3509 19.9782 58.8668 20.2888Z" fill="white"/>
</g>
<defs>
<linearGradient id="paint0_linear_74_3418" x1="3600" y1="0" x2="3600" y2="7200" gradientUnits="userSpaceOnUse">
<stop stop-color="#00D595"/>
<stop offset="1" stop-color="#1AC8FC"/>
</linearGradient>
<clipPath id="clip0_74_3418">
<rect width="72" height="72" fill="white"/>
</clipPath>
</defs>
</svg>
