<svg width="72" height="72" viewBox="0 0 72 72" fill="none" xmlns="http://www.w3.org/2000/svg">
<rect x="0.00115967" width="71.9988" height="72" rx="35.9994" fill="#0A66C2"/>
<rect x="14.4035" y="16.8" width="43.2" height="40.8" fill="white"/>
<path d="M53.7467 53.7442H46.279V42.0491C46.279 39.2603 46.2293 35.6702 42.3951 35.6702C38.5056 35.6702 37.9105 38.7088 37.9105 41.8461V53.7435H30.4428V29.6935H37.6118V32.9802H37.7122C38.4296 31.7535 39.4663 30.7443 40.7119 30.0602C41.9575 29.3761 43.3654 29.0426 44.7855 29.0953C52.3543 29.0953 53.7498 34.074 53.7498 40.5508L53.7467 53.7442ZM22.0167 26.4061C21.1596 26.4062 20.3217 26.1522 19.609 25.6761C18.8962 25.2001 18.3407 24.5233 18.0126 23.7315C17.6844 22.9397 17.5984 22.0683 17.7655 21.2276C17.9325 20.3869 18.3452 19.6146 18.9511 19.0084C19.5571 18.4023 20.3292 17.9894 21.1698 17.822C22.0104 17.6546 22.8817 17.7403 23.6736 18.0682C24.4656 18.396 25.1425 18.9514 25.6188 19.664C26.0951 20.3766 26.3494 21.2144 26.3496 22.0715C26.3497 22.6407 26.2377 23.2042 26.02 23.7301C25.8023 24.2559 25.4832 24.7337 25.0809 25.1362C24.6785 25.5387 24.2008 25.858 23.6751 26.0759C23.1493 26.2938 22.5858 26.406 22.0167 26.4061ZM25.7506 53.7442H18.2751V29.6935H25.7506V53.7442ZM57.4697 10.8035H14.5226C13.5478 10.7925 12.6085 11.1689 11.9112 11.8501C11.2138 12.5313 10.8154 13.4615 10.8035 14.4363V57.563C10.815 58.5383 11.2131 59.4691 11.9105 60.151C12.6078 60.8329 13.5473 61.2101 14.5226 61.1998H57.4697C58.4469 61.212 59.389 60.8359 60.0891 60.154C60.7892 59.4721 61.19 58.5402 61.2035 57.563V14.4332C61.1896 13.4565 60.7885 12.5252 60.0884 11.8441C59.3883 11.1629 58.4464 10.7875 57.4697 10.8004" fill="#0A66C2"/>
</svg>
