<?xml version="1.0" encoding="utf-8"?>
<!-- Generator: Adobe Illustrator 27.8.1, SVG Export Plug-In . SVG Version: 6.00 Build 0)  -->
<svg version="1.1" id="Capa_1" xmlns="http://www.w3.org/2000/svg" xmlns:xlink="http://www.w3.org/1999/xlink" x="0px" y="0px"
	 viewBox="0 0 370 368" style="enable-background:new 0 0 370 368;" xml:space="preserve">
<style type="text/css">
	.st0{fill:url(#XMLID_00000009559807921552126590000011858868939195450303_);}
	.st1{fill:#FFFFFF;}
</style>
<linearGradient id="XMLID_00000011740089398098369090000007666181610223711651_" gradientUnits="userSpaceOnUse" x1="3.3335" y1="184.6667" x2="366.6667" y2="184.6667">
	<stop  offset="0" style="stop-color:#AA3CD1"/>
	<stop  offset="1" style="stop-color:#6B23DE"/>
</linearGradient>
<circle id="XMLID_1207_" style="fill:url(#XMLID_00000011740089398098369090000007666181610223711651_);" cx="185" cy="184.7" r="181.6"/>
<g id="XMLID_1166_">
	<g id="XMLID_1167_">
		<path id="XMLID_1205_" class="st1" d="M59.2,138.4H43.9v-10.2h41.7v10.2H70.3v40.1H59.2V138.4z"/>
		<path id="XMLID_1202_" class="st1" d="M94.1,128.2h23c6.4,0,11.3,1.7,14.7,5.1c2.9,2.9,4.3,6.7,4.3,11.5v0.1c0,4.1-1,7.4-3,10
			c-2,2.6-4.6,4.4-7.8,5.6l12.3,18h-12.9l-10.8-16.1h-0.1h-8.6v16.1H94.1V128.2z M116.4,152.7c2.7,0,4.8-0.6,6.3-1.9
			c1.5-1.3,2.2-3,2.2-5.2v-0.1c0-2.4-0.8-4.2-2.3-5.4c-1.5-1.2-3.7-1.8-6.4-1.8h-11v14.5H116.4z"/>
		<path id="XMLID_1199_" class="st1" d="M163.3,127.9h10.2l21.6,50.7h-11.6l-4.6-11.3h-21.3l-4.6,11.3h-11.3L163.3,127.9z
			 M175,157.5l-6.7-16.3l-6.7,16.3H175z"/>
		<path id="XMLID_1197_" class="st1" d="M183.5,128.2h12.2l13.2,35.5l13.2-35.5H234l-20.4,50.7h-9.8L183.5,128.2z"/>
		<path id="XMLID_1195_" class="st1" d="M241.8,128.2h37.9v9.9h-27v10.2h23.7v9.9h-23.7v10.6H280v9.9h-38.3V128.2z"/>
		<path id="XMLID_1193_" class="st1" d="M290,128.2H301v40.4h25.1v10H290V128.2z"/>
		<path id="XMLID_1191_" class="st1" d="M65.4,241.5c-3.8,0-7.6-0.7-11.3-2c-3.7-1.3-7.1-3.3-10.1-6.1l6.5-7.8
			c2.3,1.9,4.7,3.4,7.1,4.5c2.4,1.1,5.1,1.7,7.9,1.7c2.3,0,4.1-0.4,5.4-1.3c1.3-0.8,1.9-2,1.9-3.5v-0.1c0-0.7-0.1-1.4-0.4-1.9
			c-0.3-0.6-0.8-1.1-1.5-1.5c-0.7-0.5-1.8-1-3.1-1.4c-1.3-0.5-3-1-5.2-1.5c-2.5-0.6-4.9-1.3-6.9-2.1c-2.1-0.8-3.8-1.7-5.3-2.8
			c-1.4-1.1-2.6-2.5-3.4-4.2c-0.8-1.7-1.2-3.8-1.2-6.3v-0.1c0-2.3,0.4-4.4,1.3-6.2c0.9-1.8,2.1-3.4,3.6-4.8c1.5-1.3,3.4-2.4,5.5-3.1
			c2.1-0.7,4.5-1.1,7.1-1.1c3.7,0,7.1,0.6,10.2,1.7c3.1,1.1,5.9,2.7,8.5,4.7l-5.8,8.3c-2.3-1.5-4.5-2.7-6.6-3.6
			c-2.2-0.9-4.3-1.3-6.5-1.3s-3.8,0.4-4.9,1.3c-1.1,0.8-1.6,1.9-1.6,3.1v0.1c0,0.8,0.2,1.5,0.5,2.1c0.3,0.6,0.9,1.1,1.7,1.6
			c0.8,0.5,1.9,0.9,3.4,1.4c1.4,0.4,3.2,0.9,5.4,1.5c2.5,0.7,4.8,1.4,6.8,2.3c2,0.8,3.7,1.8,5,3c1.4,1.2,2.4,2.6,3.1,4.1
			c0.7,1.6,1,3.5,1,5.7v0.1c0,2.5-0.5,4.7-1.4,6.7c-0.9,1.9-2.2,3.6-3.8,4.9c-1.6,1.3-3.6,2.3-5.8,3
			C70.7,241.1,68.2,241.5,65.4,241.5z"/>
		<path id="XMLID_1188_" class="st1" d="M110.8,190H121l21.6,50.7H131l-4.6-11.3h-21.3l-4.6,11.3H89.2L110.8,190z M122.4,219.7
			l-6.7-16.3l-6.7,16.3H122.4z"/>
		<path id="XMLID_1186_" class="st1" d="M150.3,190.4h11.1v40.4h25.1v10h-36.2V190.4z"/>
		<path id="XMLID_1173_" class="st1" d="M194.9,190.4h37.9v9.9h-27v10.2h23.7v9.9h-23.7v10.6h27.3v9.9h-38.3V190.4z"/>
	</g>
</g>
</svg>
